<mxfile host="app.diagrams.net" modified="2021-03-16T23:27:42.036Z" agent="5.0 (Windows NT 10.0; Win64; x64) AppleWebKit/537.36 (KHTML, like Gecko) Chrome/88.0.4324.182 Safari/537.36" etag="1BXEPWPetmie2ofF_t1u" version="14.4.8" type="github">
  <diagram id="C5RBs43oDa-KdzZeNtuy" name="Page-1">
    <mxGraphModel dx="782" dy="469" grid="1" gridSize="10" guides="1" tooltips="1" connect="1" arrows="1" fold="1" page="1" pageScale="1" pageWidth="827" pageHeight="1169" math="0" shadow="0">
      <root>
        <mxCell id="WIyWlLk6GJQsqaUBKTNV-0" />
        <mxCell id="WIyWlLk6GJQsqaUBKTNV-1" parent="WIyWlLk6GJQsqaUBKTNV-0" />
        <mxCell id="WIyWlLk6GJQsqaUBKTNV-6" value="&lt;div&gt;&lt;br&gt;&lt;/div&gt;&lt;div&gt;Fetching URL&lt;/div&gt;&lt;div&gt;using Custom&amp;nbsp;&lt;/div&gt;&lt;div&gt;Google Search&amp;nbsp;&lt;/div&gt;&lt;div&gt;Engine&lt;/div&gt;&lt;div&gt;API&lt;/div&gt;" style="rhombus;whiteSpace=wrap;html=1;shadow=0;fontFamily=Helvetica;fontSize=12;align=center;strokeWidth=1;spacing=6;spacingTop=-4;" parent="WIyWlLk6GJQsqaUBKTNV-1" vertex="1">
          <mxGeometry x="137.5" y="140" width="135" height="140" as="geometry" />
        </mxCell>
        <mxCell id="WIyWlLk6GJQsqaUBKTNV-7" value="Store the records" style="rounded=1;whiteSpace=wrap;html=1;fontSize=12;glass=0;strokeWidth=1;shadow=0;" parent="WIyWlLk6GJQsqaUBKTNV-1" vertex="1">
          <mxGeometry x="410" y="190" width="120" height="40" as="geometry" />
        </mxCell>
        <mxCell id="WIyWlLk6GJQsqaUBKTNV-10" value="Compare&amp;nbsp;&lt;br&gt;&amp;nbsp;Address with&amp;nbsp;&lt;br&gt;Source Address&lt;br&gt;and send URL" style="rhombus;whiteSpace=wrap;html=1;shadow=0;fontFamily=Helvetica;fontSize=12;align=center;strokeWidth=1;spacing=6;spacingTop=-4;" parent="WIyWlLk6GJQsqaUBKTNV-1" vertex="1">
          <mxGeometry x="142.5" y="430" width="125" height="110" as="geometry" />
        </mxCell>
        <mxCell id="WIyWlLk6GJQsqaUBKTNV-11" value="Extract the Email Id, Phone Number using Contact Scrape module" style="rounded=1;whiteSpace=wrap;html=1;fontSize=12;glass=0;strokeWidth=1;shadow=0;" parent="WIyWlLk6GJQsqaUBKTNV-1" vertex="1">
          <mxGeometry x="145" y="600" width="120" height="70" as="geometry" />
        </mxCell>
        <mxCell id="WIyWlLk6GJQsqaUBKTNV-12" value="Store the records" style="rounded=1;whiteSpace=wrap;html=1;fontSize=12;glass=0;strokeWidth=1;shadow=0;" parent="WIyWlLk6GJQsqaUBKTNV-1" vertex="1">
          <mxGeometry x="410" y="465" width="120" height="40" as="geometry" />
        </mxCell>
        <mxCell id="bg1oUJ_kaquBPYuSPTto-1" value="" style="rounded=0;html=1;jettySize=auto;orthogonalLoop=1;fontSize=11;endArrow=block;endFill=0;endSize=8;strokeWidth=1;shadow=0;labelBackgroundColor=none;edgeStyle=orthogonalEdgeStyle;entryX=0;entryY=0.5;entryDx=0;entryDy=0;" edge="1" parent="WIyWlLk6GJQsqaUBKTNV-1" source="WIyWlLk6GJQsqaUBKTNV-6" target="WIyWlLk6GJQsqaUBKTNV-7">
          <mxGeometry relative="1" as="geometry">
            <mxPoint x="215" y="110" as="sourcePoint" />
            <mxPoint x="215" y="159" as="targetPoint" />
          </mxGeometry>
        </mxCell>
        <mxCell id="bg1oUJ_kaquBPYuSPTto-4" value="" style="rounded=0;html=1;jettySize=auto;orthogonalLoop=1;fontSize=11;endArrow=block;endFill=0;endSize=8;strokeWidth=1;shadow=0;labelBackgroundColor=none;edgeStyle=orthogonalEdgeStyle;" edge="1" parent="WIyWlLk6GJQsqaUBKTNV-1">
          <mxGeometry relative="1" as="geometry">
            <mxPoint x="205" y="100" as="sourcePoint" />
            <mxPoint x="205" y="140" as="targetPoint" />
          </mxGeometry>
        </mxCell>
        <mxCell id="bg1oUJ_kaquBPYuSPTto-5" value="&lt;span&gt;Input 500 Company Name Records&lt;/span&gt;" style="ellipse;whiteSpace=wrap;html=1;" vertex="1" parent="WIyWlLk6GJQsqaUBKTNV-1">
          <mxGeometry x="145" y="20" width="120" height="80" as="geometry" />
        </mxCell>
        <mxCell id="bg1oUJ_kaquBPYuSPTto-6" value="No Results Found" style="text;html=1;strokeColor=none;fillColor=none;align=center;verticalAlign=middle;whiteSpace=wrap;rounded=0;" vertex="1" parent="WIyWlLk6GJQsqaUBKTNV-1">
          <mxGeometry x="255" y="180" width="130" height="20" as="geometry" />
        </mxCell>
        <mxCell id="bg1oUJ_kaquBPYuSPTto-7" value="" style="rounded=0;html=1;jettySize=auto;orthogonalLoop=1;fontSize=11;endArrow=block;endFill=0;endSize=8;strokeWidth=1;shadow=0;labelBackgroundColor=none;edgeStyle=orthogonalEdgeStyle;entryX=0.5;entryY=0;entryDx=0;entryDy=0;" edge="1" parent="WIyWlLk6GJQsqaUBKTNV-1" source="bg1oUJ_kaquBPYuSPTto-12" target="WIyWlLk6GJQsqaUBKTNV-10">
          <mxGeometry relative="1" as="geometry">
            <mxPoint x="205" y="280" as="sourcePoint" />
            <mxPoint x="215" y="150" as="targetPoint" />
          </mxGeometry>
        </mxCell>
        <mxCell id="bg1oUJ_kaquBPYuSPTto-9" value="Results" style="text;html=1;strokeColor=none;fillColor=none;align=center;verticalAlign=middle;whiteSpace=wrap;rounded=0;" vertex="1" parent="WIyWlLk6GJQsqaUBKTNV-1">
          <mxGeometry x="170" y="290" width="130" height="20" as="geometry" />
        </mxCell>
        <mxCell id="bg1oUJ_kaquBPYuSPTto-10" value="" style="rounded=0;html=1;jettySize=auto;orthogonalLoop=1;fontSize=11;endArrow=block;endFill=0;endSize=8;strokeWidth=1;shadow=0;labelBackgroundColor=none;edgeStyle=orthogonalEdgeStyle;exitX=0.09;exitY=1.3;exitDx=0;exitDy=0;exitPerimeter=0;entryX=0;entryY=0.5;entryDx=0;entryDy=0;" edge="1" parent="WIyWlLk6GJQsqaUBKTNV-1" source="bg1oUJ_kaquBPYuSPTto-11" target="WIyWlLk6GJQsqaUBKTNV-12">
          <mxGeometry relative="1" as="geometry">
            <mxPoint x="267.5" y="479" as="sourcePoint" />
            <mxPoint x="392.5" y="479" as="targetPoint" />
            <Array as="points">
              <mxPoint x="400" y="486" />
            </Array>
          </mxGeometry>
        </mxCell>
        <mxCell id="bg1oUJ_kaquBPYuSPTto-11" value="Not Matched" style="text;html=1;strokeColor=none;fillColor=none;align=center;verticalAlign=middle;whiteSpace=wrap;rounded=0;" vertex="1" parent="WIyWlLk6GJQsqaUBKTNV-1">
          <mxGeometry x="255" y="460" width="130" height="20" as="geometry" />
        </mxCell>
        <mxCell id="bg1oUJ_kaquBPYuSPTto-12" value="&lt;span&gt;Scraping the&lt;/span&gt;&lt;br&gt;&lt;span&gt;Address from&amp;nbsp;&lt;/span&gt;&lt;br&gt;&lt;span&gt;the URL&lt;/span&gt;" style="rounded=1;whiteSpace=wrap;html=1;" vertex="1" parent="WIyWlLk6GJQsqaUBKTNV-1">
          <mxGeometry x="145" y="320" width="120" height="60" as="geometry" />
        </mxCell>
        <mxCell id="bg1oUJ_kaquBPYuSPTto-13" value="" style="rounded=0;html=1;jettySize=auto;orthogonalLoop=1;fontSize=11;endArrow=block;endFill=0;endSize=8;strokeWidth=1;shadow=0;labelBackgroundColor=none;edgeStyle=orthogonalEdgeStyle;entryX=0.5;entryY=0;entryDx=0;entryDy=0;" edge="1" parent="WIyWlLk6GJQsqaUBKTNV-1" target="bg1oUJ_kaquBPYuSPTto-12">
          <mxGeometry relative="1" as="geometry">
            <mxPoint x="205" y="280" as="sourcePoint" />
            <mxPoint x="205" y="430" as="targetPoint" />
          </mxGeometry>
        </mxCell>
        <mxCell id="bg1oUJ_kaquBPYuSPTto-14" value="" style="rounded=0;html=1;jettySize=auto;orthogonalLoop=1;fontSize=11;endArrow=block;endFill=0;endSize=8;strokeWidth=1;shadow=0;labelBackgroundColor=none;edgeStyle=orthogonalEdgeStyle;exitX=0.5;exitY=1;exitDx=0;exitDy=0;" edge="1" parent="WIyWlLk6GJQsqaUBKTNV-1" source="WIyWlLk6GJQsqaUBKTNV-10" target="WIyWlLk6GJQsqaUBKTNV-11">
          <mxGeometry relative="1" as="geometry">
            <mxPoint x="205" y="560" as="sourcePoint" />
            <mxPoint x="215" y="350" as="targetPoint" />
            <Array as="points" />
          </mxGeometry>
        </mxCell>
        <mxCell id="bg1oUJ_kaquBPYuSPTto-15" value="Matched" style="text;html=1;strokeColor=none;fillColor=none;align=center;verticalAlign=middle;whiteSpace=wrap;rounded=0;" vertex="1" parent="WIyWlLk6GJQsqaUBKTNV-1">
          <mxGeometry x="170" y="560" width="130" height="20" as="geometry" />
        </mxCell>
        <mxCell id="bg1oUJ_kaquBPYuSPTto-17" value="&lt;span&gt;Update the Excel sheet with relevant details&lt;/span&gt;" style="ellipse;whiteSpace=wrap;html=1;" vertex="1" parent="WIyWlLk6GJQsqaUBKTNV-1">
          <mxGeometry x="145" y="740" width="120" height="80" as="geometry" />
        </mxCell>
        <mxCell id="bg1oUJ_kaquBPYuSPTto-18" value="" style="rounded=0;html=1;jettySize=auto;orthogonalLoop=1;fontSize=11;endArrow=block;endFill=0;endSize=8;strokeWidth=1;shadow=0;labelBackgroundColor=none;edgeStyle=orthogonalEdgeStyle;exitX=0.5;exitY=1;exitDx=0;exitDy=0;" edge="1" parent="WIyWlLk6GJQsqaUBKTNV-1" source="WIyWlLk6GJQsqaUBKTNV-11" target="bg1oUJ_kaquBPYuSPTto-17">
          <mxGeometry relative="1" as="geometry">
            <mxPoint x="215" y="550" as="sourcePoint" />
            <mxPoint x="215" y="610" as="targetPoint" />
            <Array as="points" />
          </mxGeometry>
        </mxCell>
        <mxCell id="bg1oUJ_kaquBPYuSPTto-20" value="1a" style="ellipse;whiteSpace=wrap;html=1;aspect=fixed;strokeWidth=2;fontFamily=Tahoma;spacingBottom=4;spacingRight=2;strokeColor=#d3d3d3;" vertex="1" parent="WIyWlLk6GJQsqaUBKTNV-1">
          <mxGeometry x="280" y="220" width="20" height="20" as="geometry" />
        </mxCell>
        <mxCell id="bg1oUJ_kaquBPYuSPTto-21" value="1b" style="ellipse;whiteSpace=wrap;html=1;aspect=fixed;strokeWidth=2;fontFamily=Tahoma;spacingBottom=4;spacingRight=2;strokeColor=#d3d3d3;" vertex="1" parent="WIyWlLk6GJQsqaUBKTNV-1">
          <mxGeometry x="180" y="290" width="20" height="20" as="geometry" />
        </mxCell>
        <mxCell id="bg1oUJ_kaquBPYuSPTto-22" value="2a" style="ellipse;whiteSpace=wrap;html=1;aspect=fixed;strokeWidth=2;fontFamily=Tahoma;spacingBottom=4;spacingRight=2;strokeColor=#d3d3d3;" vertex="1" parent="WIyWlLk6GJQsqaUBKTNV-1">
          <mxGeometry x="280" y="490" width="20" height="20" as="geometry" />
        </mxCell>
        <mxCell id="bg1oUJ_kaquBPYuSPTto-23" value="2b" style="ellipse;whiteSpace=wrap;html=1;aspect=fixed;strokeWidth=2;fontFamily=Tahoma;spacingBottom=4;spacingRight=2;strokeColor=#d3d3d3;" vertex="1" parent="WIyWlLk6GJQsqaUBKTNV-1">
          <mxGeometry x="180" y="565" width="20" height="20" as="geometry" />
        </mxCell>
        <mxCell id="bg1oUJ_kaquBPYuSPTto-25" value="" style="rounded=0;html=1;jettySize=auto;orthogonalLoop=1;fontSize=11;endArrow=block;endFill=0;endSize=8;strokeWidth=1;shadow=0;labelBackgroundColor=none;edgeStyle=orthogonalEdgeStyle;entryX=0.5;entryY=0;entryDx=0;entryDy=0;exitX=0.5;exitY=1;exitDx=0;exitDy=0;" edge="1" parent="WIyWlLk6GJQsqaUBKTNV-1" source="WIyWlLk6GJQsqaUBKTNV-7" target="WIyWlLk6GJQsqaUBKTNV-12">
          <mxGeometry relative="1" as="geometry">
            <mxPoint x="282.5" y="220" as="sourcePoint" />
            <mxPoint x="420" y="220" as="targetPoint" />
          </mxGeometry>
        </mxCell>
        <mxCell id="bg1oUJ_kaquBPYuSPTto-26" value="" style="rounded=0;html=1;jettySize=auto;orthogonalLoop=1;fontSize=11;endArrow=block;endFill=0;endSize=8;strokeWidth=1;shadow=0;labelBackgroundColor=none;edgeStyle=orthogonalEdgeStyle;exitX=1;exitY=0.5;exitDx=0;exitDy=0;entryX=1;entryY=0.5;entryDx=0;entryDy=0;" edge="1" parent="WIyWlLk6GJQsqaUBKTNV-1" source="WIyWlLk6GJQsqaUBKTNV-12" target="bg1oUJ_kaquBPYuSPTto-5">
          <mxGeometry relative="1" as="geometry">
            <mxPoint x="480" y="240" as="sourcePoint" />
            <mxPoint x="270" y="60" as="targetPoint" />
            <Array as="points">
              <mxPoint x="620" y="485" />
              <mxPoint x="620" y="60" />
            </Array>
          </mxGeometry>
        </mxCell>
        <mxCell id="bg1oUJ_kaquBPYuSPTto-27" value="Collect next set of mis matched records" style="text;html=1;strokeColor=none;fillColor=none;align=left;verticalAlign=middle;whiteSpace=wrap;rounded=0;" vertex="1" parent="WIyWlLk6GJQsqaUBKTNV-1">
          <mxGeometry x="476" y="320" width="100" height="20" as="geometry" />
        </mxCell>
        <mxCell id="bg1oUJ_kaquBPYuSPTto-28" value="Identify the alternative way to find the exact URL to process further" style="text;html=1;strokeColor=none;fillColor=none;align=left;verticalAlign=middle;whiteSpace=wrap;rounded=0;" vertex="1" parent="WIyWlLk6GJQsqaUBKTNV-1">
          <mxGeometry x="630" y="270" width="160" height="20" as="geometry" />
        </mxCell>
      </root>
    </mxGraphModel>
  </diagram>
</mxfile>
